# xmcd
#
# Track frame offsets: 
#        150
#        13878
#        28219
#        54079
#        70486
#        94961
#
# Disc length: 1505 seconds
#
# Revision: 1
# Processed by: cddbd v1.5.2PL0 Copyright (c) Steve Scherf et al.
# Submitted via: ExactAudioCopyFreeDBPlugin 1.0
#
DISCID=4e05df06
DTITLE=Uffg'Blues'd - Boogie Woogie Schuh
DYEAR=2005
DGENRE=Blues
TTITLE0=Blue Suede Shoes
TTITLE1=Monnemer M‰dcher
TTITLE2=Luis'
TTITLE3=Woihnachtsmedley
TTITLE4=Blues espagnol
TTITLE5=Schmeiﬂ de Hammer hie
EXTD=
EXTT0=
EXTT1=
EXTT2=
EXTT3=
EXTT4=
EXTT5=
PLAYORDER=
